<?xml version="1.0" encoding="utf-8"?>
<!-- Generator: Adobe Illustrator 19.0.0, SVG Export Plug-In . SVG Version: 6.00 Build 0)  -->
<svg version="1.1" id="Layer_1" xmlns="http://www.w3.org/2000/svg" xmlns:xlink="http://www.w3.org/1999/xlink" x="0px" y="0px"
	 viewBox="39 313 690.6 168" style="enable-background:new 39 313 690.6 168;" xml:space="preserve">
<style type="text/css">
	.st0{fill:#3861AD;}
	.st1{fill:#233D76;}
	.st2{fill:#233C75;}
	.st3{fill:#223C75;}
	.st4{fill:#233D75;}
</style>
<g>
	<path class="st0" d="M156.8,466.1c-7.2-4.1-13.6-7.8-20.7-11.9c6.7-4.8,13.5-8.1,20.6-12.2c-0.3,4.1,1.4,5,4.9,4.9
		c14.3-0.2,28.7,0,43-0.1c9.7-0.1,17.8-7.1,19.3-16.4c1.5-9.6-3.7-18.2-13-21.6c-3.9-1.4-7.9-1.3-11.8-0.3c-3.3,0.9-4.6,0-6-3
		c-7.3-16.2-23.5-23.3-39-17.3c-8.5,3.3-14.4,9.4-17.6,18c-1.4,3.8-2.7,5-7.1,3.4c-13.8-5-24.9,1.7-27.5,16.3
		c-0.5,3-1.6,4.2-4.8,4.1c-9-0.2-18,0.5-26.4-3.8c-13.3-6.7-21.2-22-18.5-36.1c3-15.7,15.3-27,30.7-28.1c3.4-0.2,5.3-1.6,7.3-4.2
		c8.8-11.3,20.4-17.5,34.8-17.6c14.7-0.2,29.3-0.1,44,0c3.1,0,5.4-0.2,4.8-4.9c7.2,4.2,13.7,8,20.8,12.1
		c-7.2,4.2-13.6,7.9-20.6,11.9c0.3-4.3-1.9-4.6-4.9-4.6c-14.2,0.1-28.3,0-42.5,0.1c-13.3,0-23,6.1-28.4,18.3
		c-1.8,4.2-3.8,4.8-7.9,3.7c-8.1-2.1-14.9,0.8-19.9,7.2c-4.8,6.1-5.3,13.3-1.9,20.3c3.5,7.2,9.6,10.8,17.7,10.9
		c2.2,0,3.5-0.5,4.6-2.7c6.6-13.2,17.6-19.4,32.2-19.3c2.4,0,3.8-0.7,5.2-2.7c18.5-25,54.1-25.1,72.7-0.4c1.6,2.1,3.1,2.9,5.6,3.1
		c17.1,1.3,30.3,14.1,31.7,30.5c1.5,17.5-8.8,32-25.8,36.6c-2.8,0.8-5.6,0.8-8.4,0.8c-14,0-28,0.1-42,0
		C159,461,156.1,460.9,156.8,466.1z"/>
	<path class="st1" d="M594.1,396.9c0,9-0.2,17.5,0.1,26c0.1,3.5-0.5,5-4.5,4.8c-7.5-0.3-7.5,0-7.5-7.7c0-13.5,0.2-27-0.1-40.5
		c-0.1-4.2,1.3-5.4,5.1-4.8c1,0.1,2,0.2,3,0c3.7-0.6,5.7,1.2,7.5,4.2c4.8,8.2,10,16.1,15.1,24.1c0.5,0.8,0.6,2,2.5,2
		c0-7.4,0-14.8,0-22.2c0-8.4,1.6-9.7,10.1-8.2c1.5,0.3,2,0.8,2,2.2c0,16.2,0,32.3,0,48.5c0,1.8-0.8,2.3-2.4,2.2
		c-2.3-0.1-4.7-0.2-7,0c-2.6,0.2-4.2-0.7-5.6-3c-4.8-8-9.8-15.8-14.8-23.7C596.8,399.5,596.3,397.8,594.1,396.9z"/>
	<path class="st2" d="M348.8,395.5c4.1-5.4,8.4-10.6,12.1-16.2c2.4-3.8,5.2-5.1,9.5-4.6c2.4,0.3,4.9,0,8.4,0
		c-5.1,6.6-9.6,12.4-14.2,18.1c-5.5,6.8-5.6,6.8-0.3,13.5c5.3,6.8,10.7,13.5,16.7,21.2c-5.3,0-9.8,0.1-14.3,0c-1.5,0-2-1.5-2.8-2.6
		c-3.9-5.1-7.9-10.2-11.8-15.3c-3.1,2.3-4.5,4.8-4.1,8.4c0.3,2.3-0.1,4.7,0,7c0.1,2-0.7,2.8-2.6,2.6c-0.2,0-0.3,0-0.5,0
		c-9.1,0.5-9.1,0.5-9.1-8.5c0-13.3,0.1-26.6,0-39.9c0-3.4,0.8-4.6,4.4-4.5c7.8,0.2,7.8,0,7.8,8c0,4.2,0,8.3,0,12.5
		C348.2,395.2,348.5,395.4,348.8,395.5z"/>
	<path class="st2" d="M292.9,428.7c-7.6,0-14.2-2.8-20.1-7.6c-1.8-1.5-2.6-2.8-0.6-4.8c1.9-1.9,3-5,5.2-5.9c2.2-0.9,4,2.3,6.1,3.5
		c3.7,2,7.4,3.9,11.7,3.5c2.3-0.2,4.9-0.9,5.6-3.4c0.7-2.6-1.7-3.8-3.6-4.8c-5-2.6-10.2-4.8-15.2-7.6c-5.9-3.3-11-7.3-9.9-15.2
		c0.9-6.3,6.2-11,14.5-12.4c9-1.6,16.7,1.1,22.9,8c1.3,1.4,1.5,2.4-0.1,3.6c-0.9,0.7-1.7,1.6-2.5,2.4c-2.7,2.9-5.1,3.9-8.4,0.4
		c-2.4-2.5-5.8-3.9-9.5-3.3c-1.8,0.3-3.8,0.6-4.3,2.8c-0.5,2.3,1.3,3.3,2.9,4.1c3.3,1.6,6.7,2.9,10,4.5c3.9,1.8,7.9,3.6,11.1,6.6
		c6.4,6.2,6.3,14.1-0.2,20.1C304.5,427,299.5,428.7,292.9,428.7z"/>
	<path class="st2" d="M481.3,428.7c-8.6,0-15.3-2.8-21.2-7.8c-1.7-1.4-2.4-2.7-0.4-4.3c0.4-0.3,0.5-0.9,0.9-1.2
		c1.6-1.7,2.3-4.6,4.6-5c2.1-0.4,3.4,2.2,5.3,3.3c3.1,1.7,6.2,3.2,9.7,3.9c2,0.4,4,0,5.8-0.9c3.3-1.6,3.5-3.8,0.7-6.1
		c-2.1-1.7-4.6-2.7-7-3.8c-4.4-2-8.9-3.8-12.8-6.6c-4.8-3.4-8-7.6-7-13.8c1-5.9,5.1-9.1,10.4-11.1c9.6-3.6,20-0.8,26.9,6.8
		c1.5,1.6,1.6,2.7-0.2,3.9c-0.4,0.3-0.7,0.7-1.1,1c-4.9,4.8-5,4.8-10.6,0.9c-2.7-1.9-5.5-3.2-8.8-2.6c-1.8,0.3-3.7,0.9-4,3.2
		c-0.3,2.1,1.3,3,2.7,3.7c3.3,1.6,6.7,3,10,4.5c4.1,1.9,8.2,3.8,11.4,7c5.9,5.7,5.9,13.8,0,19.4C492,427.1,486.6,428.9,481.3,428.7z
		"/>
	<path class="st3" d="M677.3,428.6c-16.5-0.1-27.4-11-27.5-27.3c-0.1-16.4,11.1-27.6,27.6-27.6c5.6,0,10.8,1.4,15.7,4.2
		c2.4,1.4,3.6,2.9,0.9,5.2c-0.8,0.6-1.4,1.4-2,2.2c-2.1,2.8-3.7,4.1-7.6,1.6c-6.2-4-14.7-1.7-19.3,4.1c-4.5,5.8-4.2,15.9,0.7,21.4
		c5.1,5.7,13.3,6.7,20,2.7c1.4-0.8,2.4-3.6,4.4-2.3c2.7,1.8,5.2,4.1,7.5,6.5c1.1,1.2-0.6,2-1.4,2.7
		C690.9,426.9,684.4,429,677.3,428.6z"/>
	<path class="st4" d="M562.3,374.7c-4.7,9.1-8.8,17.6-13.4,25.8c-2.7,4.8-4.1,9.7-3.4,15.2c0.2,1.6,0.1,3.3,0,5c0,6.8,0,6.8-6.8,6.8
		c-5.9,0-6.1,0.6-5.3-5.2c1.8-12.6-3.7-22.9-9.4-33.3c-2.4-4.5-4.6-9.1-7.3-14.4c3.5,0,6.3,0.2,9-0.1c3.6-0.4,5.4,1.1,6.7,4.3
		c1.9,4.9,4.3,9.6,6.9,15.3c2.7-5.6,5.3-10.1,7-15c1.4-3.9,3.6-5.1,7.5-4.6C556.3,375,558.8,374.7,562.3,374.7z"/>
	<path class="st2" d="M396.4,374.9c13.2-0.7,13.2-0.7,18.3,10c1.3,2.8,2.6,5.6,4.4,9.4c2.7-5.8,5.2-10.5,7.2-15.5
		c1.3-3.3,3.3-4.5,6.8-4.2c2.6,0.3,5.2,0.1,8.3,0.1c-1.4,5.2-4.3,9.1-6.2,13.5c-0.6,1.4-1.3,2.7-2.1,4c-6,9.5-9.6,19.7-7.8,31.1
		c0.5,3.5-0.8,4.5-4.3,4.4c-8-0.2-8.5-0.1-7.9-8.2c0.7-9.1-1.7-16.9-6.2-24.6C403.1,388.6,400,382,396.4,374.9z"/>
</g>
</svg>
